<svg width="91" height="82" viewBox="0 0 91 82" fill="none" xmlns="http://www.w3.org/2000/svg">
<path d="M25.5932 78V21.7745L5 4V59.0375L25.5932 78Z" fill="white"/>
<path d="M25.5932 21.7745V21.575H86L64.9492 4L5 4L25.5932 21.7745Z" fill="white"/>
<path d="M25.5932 21.575V21.7745V78H86V21.575H25.5932Z" fill="white"/>
<path d="M25.5932 21.575V78M25.5932 21.7745V21.575H86M5 4L64.9492 4L86 21.575V78H25.5932L5 59.0375V4ZM25.5932 78V21.7745M25.5932 21.7745L5 4M68.8922 31.75V49M54.5776 31.75V49M69.5254 31.75V49M53.9661 31.75V49" stroke="black" stroke-width="4" fill="none"/>
</svg>
